<svg width="115" height="115" viewBox="0 0 115 115" fill="none" xmlns="http://www.w3.org/2000/svg">
<rect width="115" height="115" rx="25" fill="black"/>
<rect x="18" y="15.4366" width="79" height="55.0704" rx="8" fill="white"/>
<path d="M35.208 30.5925H55.624V33.6965H35.208V30.5925ZM34.888 49.1845H55.88V52.1605H34.888V49.1845ZM39.848 38.7525V40.8325H50.632V38.7525H39.848ZM36.488 36.0965H54.184V43.4885H36.488V36.0965ZM36.104 44.8965H54.632V47.8085H36.104V44.8965ZM43.272 37.5685H46.984V46.0485C46.984 50.9445 45.096 55.7765 36.264 58.4965C35.816 57.6645 34.76 56.3205 33.96 55.5845C42.216 53.5685 43.272 49.6325 43.272 46.0165V37.5685ZM47.464 50.2725C48.968 52.8325 52.04 54.6245 56.168 55.3285C55.368 56.0325 54.312 57.5045 53.8 58.4645C49.256 57.3445 46.12 54.7845 44.328 51.1045L47.464 50.2725ZM39.528 28.4165H43.048V35.5845H39.528V28.4165ZM47.112 28.4165H50.696V35.5845H47.112V28.4165ZM27.56 31.3925L29.672 28.5445C31.56 29.2805 34.024 30.5605 35.24 31.6165L33 34.7845C31.88 33.6965 29.448 32.2565 27.56 31.3925ZM25.864 40.0645L27.976 37.1525C29.864 37.8245 32.296 39.0725 33.544 40.0965L31.304 43.2645C30.184 42.2405 27.784 40.8645 25.864 40.0645ZM26.664 55.8085C28.168 53.3445 30.248 49.3125 31.848 45.5365L34.888 47.8405C33.48 51.2645 31.752 54.9765 30.12 58.1125L26.664 55.8085ZM64.488 37.6645H78.792V41.1525H64.488V37.6645ZM59.016 45.6005H87.048V49.2485H59.016V45.6005ZM70.888 43.5525H75.016V54.0805C75.016 56.1285 74.536 57.1845 72.968 57.7605C71.432 58.3365 69.384 58.4005 66.728 58.4005C66.472 57.2485 65.704 55.5205 65.064 54.4645C67.016 54.5605 69.448 54.5925 70.088 54.5605C70.728 54.5285 70.888 54.4005 70.888 53.9525V43.5525ZM77.608 37.6645H78.632L79.496 37.4725L81.96 39.3925C79.88 41.7605 76.904 44.4165 73.8 46.0165C73.352 45.3765 72.328 44.3845 71.784 43.8725C74.056 42.5285 76.488 40.0645 77.608 38.4005V37.6645ZM70.888 28.4165H74.984V34.2405H70.888V28.4165ZM59.144 31.4885H86.792V39.8085H82.824V35.1045H62.92V39.8085H59.144V31.4885Z" fill="black"/>
<circle cx="75.5" cy="91.5" r="13.5" fill="white"/>
<path d="M78.604 88.7495L78.9071 89.1471L78.604 88.7495L74.0857 92.1948L72.396 90.9063C71.9598 90.5737 71.3259 90.5737 70.8897 90.9063C70.6648 91.0778 70.5 91.3367 70.5 91.6471C70.5 91.9574 70.6648 92.2163 70.8897 92.3878L73.3325 94.2505C73.5476 94.4146 73.7826 94.5 74.0857 94.5C74.3888 94.5 74.6238 94.4146 74.8389 94.2505L80.1103 90.2309C80.3352 90.0595 80.5 89.8006 80.5 89.4902C80.5 89.1798 80.3352 88.9209 80.1103 88.7495C79.6741 88.4168 79.0402 88.4168 78.604 88.7495Z" fill="#33C200" stroke="#33C200"/>
<path d="M78.604 88.7495L78.9071 89.1471L78.604 88.7495L74.0857 92.1948L72.396 90.9063C71.9598 90.5737 71.3259 90.5737 70.8897 90.9063C70.6648 91.0778 70.5 91.3367 70.5 91.6471C70.5 91.9574 70.6648 92.2163 70.8897 92.3878L73.3325 94.2505C73.5476 94.4146 73.7826 94.5 74.0857 94.5C74.3888 94.5 74.6238 94.4146 74.8389 94.2505L80.1103 90.2309C80.3352 90.0595 80.5 89.8006 80.5 89.4902C80.5 89.1798 80.3352 88.9209 80.1103 88.7495C79.6741 88.4168 79.0402 88.4168 78.604 88.7495Z" fill="#33C200" stroke="#33C200"/>
<circle cx="38.5" cy="91.5" r="13.5" fill="white"/>
<g clip-path="url(#clip0_10_486)">
<path fill-rule="evenodd" clip-rule="evenodd" d="M36.8436 87.8004C37.5753 87.4396 38.3976 87.3038 39.2065 87.4103C40.0153 87.5168 40.7745 87.8607 41.3878 88.3987C41.9546 88.8957 42.3734 89.5377 42.6004 90.2541L43.0224 89.5232C43.1489 89.304 43.4292 89.2289 43.6485 89.3555C43.8677 89.482 43.9428 89.7624 43.8162 89.9816L42.8439 91.6656C42.7174 91.8848 42.4371 91.9599 42.2178 91.8334L40.5338 90.8611C40.3146 90.7345 40.2395 90.4542 40.3661 90.235C40.4926 90.0158 40.7729 89.9407 40.9922 90.0672L41.7106 90.482C41.5308 89.9445 41.2113 89.4631 40.7834 89.0879C40.3064 88.6695 39.7159 88.4019 39.0868 88.3191C38.4577 88.2363 37.8181 88.3419 37.249 88.6225C36.6799 88.9032 36.2068 89.3463 35.8895 89.8958C35.763 90.1151 35.4827 90.1902 35.2634 90.0636C35.0442 89.937 34.9691 89.6567 35.0957 89.4375C35.5036 88.731 36.1119 88.1612 36.8436 87.8004ZM34.4921 91.3344C34.6187 91.1152 34.899 91.0401 35.1182 91.1666L36.8022 92.1389C37.0215 92.2655 37.0966 92.5458 36.97 92.765C36.8434 92.9842 36.5631 93.0593 36.3439 92.9328L35.6255 92.518C35.8053 93.0555 36.1248 93.5369 36.5526 93.9122C37.0297 94.3305 37.6201 94.5981 38.2493 94.6809C38.8784 94.7637 39.5179 94.6581 40.087 94.3775C40.6562 94.0968 41.1293 93.6537 41.4465 93.1042C41.5731 92.885 41.8534 92.8098 42.0726 92.9364C42.2918 93.063 42.367 93.3433 42.2404 93.5625C41.8325 94.269 41.2242 94.8388 40.4925 95.1996C39.7608 95.5604 38.9385 95.6962 38.1296 95.5897C37.3207 95.4832 36.5616 95.1393 35.9482 94.6013C35.3815 94.1043 34.9627 93.4623 34.7357 92.7459L34.3137 93.4768C34.1871 93.696 33.9068 93.7711 33.6876 93.6445C33.4684 93.518 33.3933 93.2376 33.5199 93.0184L34.4921 91.3344Z" fill="#FF0D38"/>
<path d="M36.8436 87.8004C37.5753 87.4396 38.3976 87.3038 39.2065 87.4103C40.0153 87.5168 40.7745 87.8607 41.3878 88.3987C41.9546 88.8957 42.3734 89.5377 42.6004 90.2541L43.0224 89.5232C43.1489 89.304 43.4292 89.2289 43.6485 89.3555C43.8677 89.482 43.9428 89.7624 43.8162 89.9816L42.8439 91.6656C42.7174 91.8848 42.4371 91.9599 42.2178 91.8334L40.5338 90.8611C40.3146 90.7345 40.2395 90.4542 40.3661 90.235C40.4926 90.0158 40.7729 89.9407 40.9922 90.0672L41.7106 90.482C41.5308 89.9445 41.2113 89.4631 40.7834 89.0879C40.3064 88.6695 39.7159 88.4019 39.0868 88.3191C38.4577 88.2363 37.8181 88.3419 37.249 88.6225C36.6799 88.9032 36.2068 89.3463 35.8895 89.8958C35.763 90.1151 35.4827 90.1902 35.2634 90.0636C35.0442 89.937 34.9691 89.6567 35.0957 89.4375C35.5036 88.731 36.1119 88.1612 36.8436 87.8004ZM36.8436 87.8004L37.0463 88.2115M35.1182 91.1666C34.899 91.0401 34.6187 91.1152 34.4921 91.3344L33.5199 93.0184C33.3933 93.2376 33.4684 93.518 33.6876 93.6445C33.9068 93.7711 34.1871 93.696 34.3137 93.4768L34.7357 92.7459C34.9627 93.4623 35.3815 94.1043 35.9482 94.6013C36.5616 95.1393 37.3207 95.4832 38.1296 95.5897C38.9385 95.6962 39.7608 95.5604 40.4925 95.1996C41.2242 94.8388 41.8325 94.269 42.2404 93.5625C42.367 93.3433 42.2918 93.063 42.0726 92.9364C41.8534 92.8098 41.5731 92.885 41.4465 93.1042C41.1293 93.6537 40.6562 94.0968 40.087 94.3775C39.5179 94.6581 38.8784 94.7637 38.2493 94.6809C37.6201 94.5981 37.0297 94.3305 36.5526 93.9122C36.1248 93.5369 35.8053 93.0555 35.6255 92.518L36.3439 92.9328C36.5631 93.0593 36.8434 92.9842 36.97 92.765C37.0966 92.5458 37.0215 92.2655 36.8022 92.1389L35.1182 91.1666Z" stroke="#FF0D38" stroke-width="0.5" stroke-linecap="round" stroke-linejoin="round"/>
</g>
<defs>
<clipPath id="clip0_10_486">
<rect width="11" height="11" fill="white" transform="translate(33 86)"/>
</clipPath>
</defs>
</svg>
