<svg width="76" height="44" viewBox="0 0 76 44" fill="none" xmlns="http://www.w3.org/2000/svg">
<path d="M48 17C48 17.5523 47.5523 18 47 18H29C28.4477 18 28 17.5523 28 17V17C28 16.4477 28.4477 16 29 16H47C47.5523 16 48 16.4477 48 17V17ZM48 24C48 23.4477 47.5523 23 47 23H29C28.4477 23 28 23.4477 28 24V24C28 24.5523 28.4477 25 29 25H47C47.5523 25 48 24.5523 48 24V24ZM48 31C48 30.4477 47.5523 30 47 30H29C28.4477 30 28 30.4477 28 31V31C28 31.5523 28.4477 32 29 32H47C47.5523 32 48 31.5523 48 31V31Z" fill="white"/>
</svg>
