<?xml version="1.0" encoding="UTF-8"?><svg id="Layer_1" xmlns="http://www.w3.org/2000/svg" viewBox="0 0 180 180"><defs><style>.cls-1{fill:#fff;}.cls-2{fill:none;stroke:#264b68;stroke-linecap:round;stroke-miterlimit:10;stroke-width:8px;}</style></defs><path class="cls-1" d="M130.64,61.07c-2.02,0-3.98,.25-5.86,.69-6.39-9.94-17.52-16.54-30.21-16.54-16.52,0-30.4,11.17-34.59,26.35-.91-.12-1.83-.19-2.77-.19-11.15,0-20.2,9.04-20.2,20.2s9.04,20.2,20.2,20.2h73.44c14,0,25.36-11.35,25.36-25.36s-11.35-25.36-25.36-25.36Z"/><g><path class="cls-2" d="M92.01,111.78h39.63c14,0,25.36-11.35,25.36-25.36s-11.35-25.36-25.36-25.36c-2.02,0-3.98,.25-5.86,.69-6.39-9.94-17.52-16.54-30.21-16.54-16.52,0-30.4,11.17-34.59,26.35-.91-.12-1.83-.19-2.77-.19-7.74,0-14.46,4.35-17.85,10.74"/><line class="cls-2" x1="86.01" y1="96.78" x2="37.01" y2="96.78"/><line class="cls-2" x1="72.01" y1="111.78" x2="23.01" y2="111.78"/><line class="cls-2" x1="101.01" y1="126.78" x2="52.01" y2="126.78"/></g></svg>