<?xml version="1.0" encoding="UTF-8"?><svg id="Layer_1" xmlns="http://www.w3.org/2000/svg" viewBox="0 0 180 180"><defs><style>.cls-1{fill:#fff;}.cls-2{fill:none;stroke:#264b68;stroke-linecap:round;stroke-miterlimit:10;stroke-width:8px;}</style></defs><path class="cls-1" d="M123.39,57.18c-2.02,0-3.98,.25-5.86,.69-6.39-9.94-17.52-16.54-30.21-16.54-16.52,0-30.4,11.17-34.59,26.35-.91-.12-1.83-.19-2.77-.19-11.15,0-20.2,9.04-20.2,20.2s9.04,20.2,20.2,20.2H123.39c14,0,25.36-11.35,25.36-25.36s-11.35-25.36-25.36-25.36Z"/><g><path class="cls-2" d="M124.89,107.89c14,0,25.36-11.35,25.36-25.36s-11.35-25.36-25.36-25.36c-2.02,0-3.98,.25-5.86,.69-6.39-9.94-17.52-16.54-30.21-16.54-16.52,0-30.4,11.17-34.59,26.35-.91-.12-1.83-.19-2.77-.19-11.15,0-20.2,9.04-20.2,20.2s9.04,20.2,20.2,20.2"/><g><line class="cls-2" x1="107.26" y1="115.11" x2="107.26" y2="141.67"/><line class="cls-2" x1="118.76" y1="121.75" x2="95.76" y2="135.03"/><line class="cls-2" x1="95.76" y1="121.75" x2="118.76" y2="135.03"/></g><g><line class="cls-2" x1="64.26" y1="124.11" x2="64.26" y2="150.67"/><line class="cls-2" x1="75.76" y1="130.75" x2="52.76" y2="144.03"/><line class="cls-2" x1="52.76" y1="130.75" x2="75.76" y2="144.03"/></g><g><line class="cls-2" x1="79.26" y1="84.11" x2="79.26" y2="110.67"/><line class="cls-2" x1="90.76" y1="90.75" x2="67.76" y2="104.03"/><line class="cls-2" x1="67.76" y1="90.75" x2="90.76" y2="104.03"/></g></g></svg>