<?xml version="1.0" encoding="UTF-8"?><svg id="Layer_1" xmlns="http://www.w3.org/2000/svg" viewBox="0 0 180 180"><defs><style>.cls-1{fill:#fff;}.cls-2{fill:none;stroke-linecap:round;}.cls-2,.cls-3{stroke:#264b68;stroke-miterlimit:10;stroke-width:8px;}.cls-3{fill:#eac268;}</style></defs><path class="cls-1" d="M104.13,81.42c-2.02,0-3.98,.25-5.86,.69-6.39-9.94-17.52-16.54-30.21-16.54-16.52,0-30.4,11.17-34.59,26.35-.91-.12-1.83-.19-2.77-.19-11.15,0-20.2,9.04-20.2,20.2s9.04,20.2,20.2,20.2H104.13c14,0,25.36-11.35,25.36-25.36s-11.35-25.36-25.36-25.36Z"/><g><line class="cls-2" x1="116.51" y1="41.34" x2="116.51" y2="25.13"/><line class="cls-2" x1="153.29" y1="78.12" x2="169.5" y2="78.12"/><line class="cls-2" x1="142.52" y1="52.11" x2="151.55" y2="43.08"/><g><line class="cls-2" x1="90.51" y1="52.11" x2="81.48" y2="43.08"/><line class="cls-2" x1="142.52" y1="104.12" x2="151.55" y2="113.15"/></g><path class="cls-3" d="M117.75,56.52c-11.93,0-21.6,9.67-21.6,21.6,0,.15,.02,.3,.02,.45,.94,1.13,1.81,2.31,2.6,3.55,1.88-.45,3.84-.69,5.86-.69,10.57,0,19.63,6.48,23.44,15.68,6.72-3.66,11.28-10.79,11.28-18.98,0-11.93-9.67-21.6-21.6-21.6Z"/><path class="cls-2" d="M95.5,132.13h9.13c14,0,25.36-11.35,25.36-25.36s-11.35-25.36-25.36-25.36c-2.02,0-3.98,.25-5.86,.69-6.39-9.94-17.52-16.54-30.21-16.54-16.52,0-30.4,11.17-34.59,26.35-.91-.12-1.83-.19-2.77-.19-11.15,0-20.2,9.04-20.2,20.2s9.04,20.2,20.2,20.2h7.3"/><line class="cls-2" x1="55.88" y1="120.97" x2="47.41" y2="146.39"/><line class="cls-2" x1="70.98" y1="120.97" x2="58.26" y2="154.87"/><line class="cls-2" x1="86.07" y1="120.97" x2="77.59" y2="142.16"/></g></svg>