<?xml version="1.0" encoding="UTF-8"?><svg id="Layer_1" xmlns="http://www.w3.org/2000/svg" viewBox="0 0 180 180"><defs><style>.cls-1{fill:#fff;}.cls-2{fill:none;stroke-linecap:round;}.cls-2,.cls-3{stroke:#264b68;stroke-miterlimit:10;stroke-width:8px;}.cls-3{fill:#eac268;}</style></defs><path class="cls-1" d="M110.94,82.58c-2.02,0-3.98,.25-5.86,.69-6.39-9.94-17.52-16.54-30.21-16.54-16.52,0-30.4,11.17-34.59,26.35-.91-.12-1.83-.19-2.77-.19-11.15,0-20.2,9.04-20.2,20.2s9.04,20.2,20.2,20.2H110.94c14,0,25.36-11.35,25.36-25.36s-11.35-25.36-25.36-25.36Z"/><path class="cls-2" d="M102.31,133.29h9.13c14,0,25.36-11.35,25.36-25.36s-11.35-25.36-25.36-25.36c-2.02,0-3.98,.25-5.86,.69-6.39-9.94-17.52-16.54-30.21-16.54-16.52,0-30.4,11.17-34.59,26.35-.91-.12-1.83-.19-2.77-.19-11.15,0-20.2,9.04-20.2,20.2s9.04,20.2,20.2,20.2h7.3"/><path class="cls-3" d="M146.89,73.51c-16.59,0-30.04-13.45-30.04-30.04,0-7.44,2.71-14.25,7.2-19.5-18.38,1.76-32.75,17.24-32.75,36.08,0,3.99,.65,7.83,1.84,11.42,5.03,2.88,9.3,6.94,12.42,11.81,1.88-.45,3.84-.69,5.86-.69,9.6,0,17.95,5.34,22.26,13.2,14.15-2.41,25.5-13.02,28.99-26.77-4.59,2.84-10,4.49-15.8,4.49Z"/><line class="cls-2" x1="62.69" y1="122.13" x2="54.22" y2="147.55"/><line class="cls-2" x1="77.78" y1="122.13" x2="65.07" y2="156.03"/><line class="cls-2" x1="92.88" y1="122.13" x2="84.4" y2="143.31"/></svg>