<?xml version="1.0" encoding="UTF-8"?><svg id="Layer_1" xmlns="http://www.w3.org/2000/svg" viewBox="0 0 180 180"><defs><style>.cls-1{fill:#fff;}.cls-1,.cls-2{stroke:#264b68;stroke-miterlimit:10;stroke-width:8px;}.cls-2{fill:#eac268;}</style></defs><path class="cls-2" d="M145.39,84.38c-16.59,0-30.04-13.45-30.04-30.04,0-7.44,2.71-14.25,7.2-19.5-18.38,1.76-32.75,17.24-32.75,36.08,0,20.02,16.23,36.25,36.25,36.25,16.93,0,31.14-11.6,35.13-27.29-4.59,2.84-10,4.49-15.8,4.49Z"/><path class="cls-1" d="M112.44,94.45c-2.02,0-3.98,.25-5.86,.69-6.39-9.94-17.52-16.54-30.21-16.54-16.52,0-30.4,11.17-34.59,26.35-.91-.12-1.83-.19-2.77-.19-11.15,0-20.2,9.04-20.2,20.2s9.04,20.2,20.2,20.2H112.44c14,0,25.36-11.35,25.36-25.36s-11.35-25.36-25.36-25.36Z"/></svg>