<?xml version="1.0" encoding="UTF-8"?><svg id="Layer_1" xmlns="http://www.w3.org/2000/svg" viewBox="0 0 180 180"><defs><style>.cls-1{fill:none;stroke-linecap:round;}.cls-1,.cls-2,.cls-3{stroke:#264b68;stroke-miterlimit:10;stroke-width:8px;}.cls-2{fill:#fff;}.cls-3{fill:#eac268;}</style></defs><g><circle class="cls-3" cx="119.68" cy="85.32" r="21.6"/><line class="cls-1" x1="118.45" y1="48.54" x2="118.45" y2="32.34"/><g><line class="cls-1" x1="81.67" y1="85.32" x2="65.46" y2="85.32"/><line class="cls-1" x1="155.22" y1="85.32" x2="171.43" y2="85.32"/></g><g><line class="cls-1" x1="92.44" y1="111.33" x2="83.41" y2="120.36"/><line class="cls-1" x1="144.45" y1="59.32" x2="153.48" y2="50.29"/></g><g><line class="cls-1" x1="92.44" y1="59.32" x2="83.41" y2="50.29"/><line class="cls-1" x1="144.45" y1="111.33" x2="153.48" y2="120.36"/></g></g><path class="cls-2" d="M102.2,82.95c-2.02,0-3.98,.25-5.86,.69-6.39-9.94-17.52-16.54-30.21-16.54-16.52,0-30.4,11.17-34.59,26.35-.91-.12-1.83-.19-2.77-.19-11.15,0-20.2,9.04-20.2,20.2s9.04,20.2,20.2,20.2H102.2c14,0,25.36-11.35,25.36-25.36s-11.35-25.36-25.36-25.36Z"/></svg>