<?xml version="1.0" encoding="UTF-8"?><svg id="Layer_1" xmlns="http://www.w3.org/2000/svg" viewBox="0 0 180 180"><defs><style>.cls-1{fill:#264b68;}.cls-2{fill:#eac268;stroke:#264b68;stroke-miterlimit:10;stroke-width:8px;}</style></defs><path class="cls-2" d="M108.5,118.55c-24.02,0-43.5-19.48-43.5-43.5,0-10.78,3.93-20.64,10.43-28.24-26.61,2.55-47.43,24.97-47.43,52.25,0,28.99,23.51,52.5,52.5,52.5,24.51,0,45.1-16.8,50.88-39.52-6.65,4.12-14.48,6.5-22.88,6.5Z"/><polygon class="cls-1" points="107.5 28.44 110.32 34.16 116.63 35.08 112.07 39.53 113.15 45.82 107.5 42.85 101.85 45.82 102.93 39.53 98.37 35.08 104.68 34.16 107.5 28.44"/><polygon class="cls-1" points="98.68 68.8 100.94 73.38 106 74.12 102.34 77.68 103.21 82.72 98.68 80.34 94.16 82.72 95.02 77.68 91.37 74.12 96.42 73.38 98.68 68.8"/><polygon class="cls-1" points="137.68 53.58 142.11 62.55 152 63.99 144.84 70.96 146.53 80.82 137.68 76.16 128.83 80.82 130.52 70.96 123.37 63.99 133.26 62.55 137.68 53.58"/></svg>