<?xml version="1.0" encoding="UTF-8"?><svg id="Layer_1" xmlns="http://www.w3.org/2000/svg" viewBox="0 0 180 180"><defs><style>.cls-1{fill:#fff;stroke:#264b68;stroke-miterlimit:10;stroke-width:8px;}</style></defs><path class="cls-1" d="M147.64,63.07c-2.02,0-3.98,.25-5.86,.69-6.39-9.94-17.52-16.54-30.21-16.54-14.84,0-27.54,9.01-33.01,21.85,6.69,2.84,12.34,7.64,16.23,13.69,1.88-.45,3.84-.69,5.86-.69,14,0,25.35,11.35,25.35,25.36,0,2.19-.28,4.32-.8,6.35h22.45c14,0,25.35-11.35,25.35-25.35s-11.35-25.36-25.35-25.36Z"/><path class="cls-1" d="M100.64,82.07c-2.02,0-3.98,.25-5.86,.69-6.39-9.94-17.52-16.54-30.21-16.54-16.52,0-30.4,11.17-34.59,26.35-.91-.12-1.83-.19-2.77-.19-11.15,0-20.2,9.04-20.2,20.2s9.04,20.2,20.2,20.2H100.64c14,0,25.36-11.35,25.36-25.36s-11.35-25.36-25.36-25.36Z"/></svg>